<?xml version="1.0" encoding="UTF-8"?>
<svg id="Ebene_2" xmlns="http://www.w3.org/2000/svg" xmlns:xlink="http://www.w3.org/1999/xlink"
     viewBox="0 0 466.02 85.75">
    <defs>
        <clipPath id="clippath">
            <rect x="0" width="466.02" height="85.75" style="fill:none; stroke-width:0px;"/>
        </clipPath>
        <clipPath id="clippath-1">
            <rect x="0" width="466.02" height="85.75" style="fill:none; stroke-width:0px;"/>
        </clipPath>
        <clipPath id="clippath-2">
            <rect x="86.5" y="17.58" width="188.5" height="16.5" style="fill:none; stroke-width:0px;"/>
        </clipPath>
    </defs>
    <g id="Ebene_1-2">
        <g style="clip-path:url(#clippath);">
            <path d="m27.07,70.05c14.95,0,27.07-12.12,27.07-27.07s-12.12-27.07-27.07-27.07S0,28.03,0,42.98s12.12,27.07,27.07,27.07"
                  style="fill:#b68bba; stroke-width:0px;"/>
        </g>
        <text transform="translate(12.23 41.63)"
              style="fill:#2e2d2c; font-family:HelveticaNeue-Bold, &apos;Helvetica Neue&apos;; font-size:20.74px; font-weight:700;">
            <tspan x="0" y="0">Mu</tspan>
        </text>
        <text transform="translate(12.23 59.3)"
              style="fill:#2e2d2c; font-family:HelveticaNeue-Bold, &apos;Helvetica Neue&apos;; font-size:20.74px; font-weight:700;">
            <tspan x="0" y="0">SK</tspan>
        </text>
        <g style="clip-path:url(#clippath-1);">
            <line x1="69.49" y1="0" x2="69.49" y2="85.75" style="fill:none; stroke:#1d1d1b;"/>
        </g>
        <polygon points="95.86 17.57 86.5 33.81 105.23 33.81 95.86 17.57" style="fill:#1d1d1b; stroke-width:0px;"/>
        <polygon
                points="240.93 18.33 240.93 24.47 233.9 24.47 233.9 18.33 231.2 18.33 231.2 33.77 233.9 33.77 233.9 26.81 240.93 26.81 240.93 33.77 243.63 33.77 243.63 18.33 240.93 18.33"
                style="fill:#1d1d1b; stroke-width:0px;"/>
        <g style="clip-path:url(#clippath-2);">
            <path d="m260.92,23.65c-.3.33-.39.65-.39.65v-1.8h-2.47v11.32h2.47v-5.31c0-3.41,1.72-3.92,3.85-3.92v-2.09c-2.31,0-2.95.58-3.46,1.15"
                  style="fill:#1d1d1b; stroke-width:0px;"/>
            <polygon
                    points="268.28 31.87 274.68 24.37 274.68 22.5 265.6 22.5 265.6 24.58 271.35 24.58 265.16 32.09 265.16 33.82 275 33.82 275 31.87 268.28 31.87"
                    style="fill:#1d1d1b; stroke-width:0px;"/>
            <polygon
                    points="121.52 24.49 114.48 24.49 114.48 18.35 111.78 18.35 111.78 33.81 114.48 33.81 114.48 26.84 121.52 26.84 121.52 33.81 124.22 33.81 124.22 18.35 121.52 18.35 121.52 24.49"
                    style="fill:#1d1d1b; stroke-width:0px;"/>
            <path d="m135.93,24.06c-.48-.52-1.06-.92-1.76-1.21-.69-.29-1.48-.44-2.36-.44s-1.67.15-2.37.44c-.69.29-1.28.69-1.75,1.21-.48.52-.85,1.13-1.09,1.84-.25.71-.38,1.49-.38,2.33s.12,1.65.38,2.36c.24.71.61,1.32,1.09,1.84.48.51,1.06.92,1.75,1.21.69.29,1.48.44,2.37.44s1.67-.15,2.36-.44c.69-.29,1.28-.7,1.76-1.21.48-.52.84-1.13,1.09-1.84.25-.72.38-1.5.38-2.36s-.12-1.62-.38-2.33c-.25-.71-.61-1.33-1.09-1.84m-1.15,5.6c-.12.46-.31.88-.57,1.26-.26.37-.58.67-.98.9-.4.22-.87.34-1.41.34s-1.01-.11-1.41-.34c-.4-.23-.73-.53-.99-.9-.25-.38-.44-.79-.56-1.26-.12-.46-.18-.94-.18-1.43s.06-.94.18-1.41c.12-.47.31-.89.56-1.25.26-.37.59-.66.99-.89.4-.23.87-.34,1.41-.34s1.01.11,1.41.34c.4.23.72.52.98.89.26.37.45.78.57,1.25.12.47.18.94.18,1.41s-.06.96-.18,1.43"
                  style="fill:#1d1d1b; stroke-width:0px;"/>
            <path d="m142.3,25.09c.3-.29.63-.49.98-.6.35-.1.69-.16,1.01-.16.68,0,1.25.17,1.7.53.45.35.72.87.82,1.55h2.44c-.06-.68-.23-1.27-.51-1.78-.29-.5-.65-.91-1.1-1.24-.45-.32-.96-.57-1.54-.74-.58-.16-1.19-.24-1.83-.24-.91,0-1.71.15-2.39.46-.68.31-1.24.73-1.7,1.26-.46.54-.8,1.17-1.03,1.9-.23.72-.34,1.5-.34,2.33s.12,1.56.35,2.27c.23.7.58,1.3,1.04,1.81.46.5,1.01.9,1.68,1.2.66.29,1.43.44,2.3.44,1.43,0,2.57-.38,3.44-1.15.86-.76,1.41-1.86,1.64-3.31h-2.44c-.11.8-.4,1.42-.86,1.86-.46.44-1.05.66-1.77.66-.53,0-.97-.11-1.35-.33-.37-.22-.68-.51-.91-.87-.24-.35-.41-.77-.51-1.22-.11-.46-.16-.91-.16-1.36,0-.85.1-1.52.3-2.05.2-.52.45-.93.75-1.22"
                  style="fill:#1d1d1b; stroke-width:0px;"/>
            <path d="m156.69,22.41c-.73,0-1.39.17-1.98.51-.59.33-1.04.75-1.34,1.25h-.04v-5.67h-2.44v15.28h2.44v-6.53c0-.4.06-.78.19-1.14.13-.35.31-.66.53-.93.23-.27.51-.47.83-.62.33-.15.7-.23,1.12-.23.73,0,1.26.2,1.6.59.34.4.53,1.02.56,1.9v6.96h2.44v-7.6c0-1.26-.35-2.2-1.05-2.82-.7-.63-1.65-.94-2.87-.94"
                  style="fill:#1d1d1b; stroke-width:0px;"/>
            <path d="m170.92,28.19c-.34-.25-.72-.43-1.15-.58-.43-.14-.86-.26-1.31-.36-.46-.1-.9-.19-1.33-.28-.43-.09-.81-.19-1.15-.31-.34-.12-.61-.27-.82-.46-.21-.19-.31-.43-.31-.73,0-.25.07-.44.21-.59.15-.15.32-.27.53-.35.21-.08.43-.13.66-.16.24-.03.44-.05.61-.05.54,0,1.02.1,1.45.3.42.2.69.59.8,1.17h2.54c-.07-.61-.24-1.13-.53-1.57-.27-.44-.62-.79-1.05-1.06-.42-.27-.89-.47-1.41-.59-.52-.13-1.07-.18-1.64-.18-.5,0-1.02.05-1.57.15-.55.1-1.05.27-1.5.52-.45.25-.82.58-1.11.99-.29.4-.44.91-.44,1.51,0,.55.1,1.02.3,1.4.2.37.47.69.8.93.34.24.71.44,1.13.58.42.14.86.26,1.32.36.44.1.88.19,1.3.28.43.09.81.19,1.14.31.34.13.61.29.82.48.21.2.33.46.34.77.01.32-.06.57-.23.76-.16.19-.37.34-.63.44-.25.1-.53.17-.82.21-.29.04-.55.05-.78.05-.66,0-1.22-.14-1.69-.43-.47-.29-.74-.78-.81-1.5h-2.44c.01.66.15,1.23.4,1.71.25.48.6.88,1.03,1.2.43.32.95.56,1.54.72.6.16,1.24.24,1.94.24.57,0,1.15-.07,1.74-.19.58-.13,1.12-.34,1.6-.62.48-.28.87-.66,1.17-1.11.3-.46.45-1.01.45-1.67,0-.54-.1-1-.31-1.37-.21-.37-.48-.68-.82-.92"
                  style="fill:#1d1d1b; stroke-width:0px;"/>
            <path d="m176.82,25.09c.3-.29.63-.49.98-.6.36-.1.69-.16,1.01-.16.69,0,1.25.17,1.7.53.45.35.72.87.82,1.55h2.44c-.06-.68-.23-1.27-.51-1.78-.28-.5-.65-.91-1.1-1.24-.45-.32-.97-.57-1.54-.74-.58-.16-1.19-.24-1.83-.24-.91,0-1.71.15-2.38.46-.68.31-1.25.73-1.7,1.26-.46.54-.8,1.17-1.03,1.9-.23.72-.34,1.5-.34,2.33s.12,1.56.35,2.27c.24.7.58,1.3,1.04,1.81.46.5,1.02.9,1.68,1.2.66.29,1.43.44,2.3.44,1.43,0,2.57-.38,3.44-1.15.86-.76,1.41-1.86,1.64-3.31h-2.44c-.12.8-.4,1.42-.87,1.86-.46.44-1.05.66-1.77.66-.53,0-.98-.11-1.35-.33-.37-.22-.68-.51-.91-.87-.24-.35-.41-.77-.51-1.22-.11-.46-.16-.91-.16-1.36,0-.85.1-1.52.3-2.05.2-.52.45-.93.75-1.22"
                  style="fill:#1d1d1b; stroke-width:0px;"/>
            <path d="m191.21,22.41c-.73,0-1.39.17-1.98.51-.59.33-1.04.75-1.34,1.25h-.04v-5.67h-2.44v15.28h2.44v-6.53c0-.4.06-.78.19-1.14.13-.35.31-.66.54-.93.23-.27.51-.47.84-.62.33-.15.7-.23,1.11-.23.72,0,1.26.2,1.6.59.34.4.53,1.02.55,1.9v6.96h2.44v-7.6c0-1.26-.35-2.2-1.05-2.82-.7-.63-1.66-.94-2.87-.94"
                  style="fill:#1d1d1b; stroke-width:0px;"/>
            <path d="m204.54,29.12c0,.43-.05.83-.14,1.2-.09.37-.25.69-.46.95-.21.26-.49.47-.83.63-.34.16-.77.23-1.29.23-.67,0-1.19-.2-1.56-.6-.37-.4-.56-1.08-.56-2.05v-6.78h-2.44v7.02c0,1.46.32,2.55.97,3.27.65.72,1.7,1.08,3.16,1.08.62,0,1.22-.17,1.81-.5.59-.34,1.04-.78,1.34-1.34h.04v1.54h2.4v-11.07h-2.44v6.42Z"
                  style="fill:#1d1d1b; stroke-width:0px;"/>
            <path d="m222.8,24.4c-.46-.6-1.03-1.08-1.72-1.45-.69-.36-1.48-.54-2.34-.54s-1.57.16-2.23.47c-.65.31-1.22.74-1.68,1.27-.46.54-.82,1.16-1.07,1.87-.25.7-.37,1.45-.37,2.24,0,.86.12,1.64.35,2.36.23.71.58,1.33,1.05,1.84.47.51,1.03.91,1.7,1.2.67.28,1.44.43,2.31.43.6,0,1.17-.09,1.72-.25.55-.16,1.04-.4,1.49-.73.44-.32.82-.71,1.13-1.18.31-.47.54-1,.66-1.6h-2.31c-.22.62-.54,1.08-.97,1.38-.43.3-1.01.46-1.72.46-.51,0-.96-.09-1.33-.27-.37-.18-.68-.42-.92-.72-.24-.3-.43-.65-.54-1.05-.12-.4-.18-.82-.18-1.24h8.13c.1-.82.05-1.63-.16-2.41-.21-.78-.54-1.46-1-2.06m-6.98,2.87c.02-.42.1-.8.25-1.16.15-.35.35-.66.6-.92.25-.27.55-.47.9-.62.35-.15.74-.23,1.17-.23s.79.09,1.12.25c.34.16.62.38.86.64.24.27.42.57.56.93.13.36.22.73.25,1.12h-5.69Z"
                  style="fill:#1d1d1b; stroke-width:0px;"/>
            <rect x="209.27" y="18.49" width="2.44" height="15.28" style="fill:#1d1d1b; stroke-width:0px;"/>
            <path d="m255.31,31.18v-5.65c0-.59-.13-1.1-.39-1.5-.26-.41-.6-.75-1.02-1.01-.43-.26-.91-.45-1.44-.56-.54-.12-1.07-.17-1.62-.17-.62,0-1.23.05-1.82.17-.59.11-1.12.31-1.59.6-.47.29-.86.67-1.16,1.15-.3.47-.48,1.07-.52,1.79h2.47c.06-.6.31-1.05.76-1.34.45-.29,1.02-.43,1.71-.43.25,0,.51.02.78.05.27.03.52.11.74.22.23.11.41.26.57.47.15.2.23.46.23.78,0,.36-.09.63-.27.81-.18.18-.43.31-.74.4-.31.08-.67.15-1.07.19-.4.03-.83.09-1.28.18-.52.06-1.04.14-1.55.25-.51.11-.98.29-1.39.53-.41.25-.74.58-.99,1.02-.25.44-.38,1-.38,1.69,0,.55.1,1.03.31,1.44.21.41.49.75.84,1.02.36.26.76.47,1.22.61.46.14.95.21,1.45.21.67,0,1.36-.11,2.07-.33.71-.22,1.32-.56,1.81-1.04.28.69,1.23,1.12,2.27,1.12h1.57v-1.7c-1.31,0-1.57-.39-1.57-.96m-2.47-1.17c0,.39-.09.72-.28.98-.19.27-.42.49-.7.66-.28.17-.58.3-.9.36-.32.08-.61.11-.89.11-.22,0-.46-.02-.73-.07-.27-.05-.51-.12-.74-.23-.23-.11-.41-.26-.57-.45-.16-.18-.24-.42-.24-.69,0-.32.06-.59.16-.82.11-.22.26-.4.44-.54.19-.14.4-.24.65-.32.25-.08.5-.14.76-.19.55-.1,1.1-.17,1.65-.22.55-.06,1.01-.2,1.38-.44v1.84Z"
                  style="fill:#1d1d1b; stroke-width:0px;"/>
        </g>
        <text transform="translate(86.5 61.85)"
              style="fill:#878787; font-family:HelveticaNeue-Medium, &apos;Helvetica Neue&apos;; font-size:22px; font-weight:500;">
            <tspan x="0" y="0">Medien- und Spielekonzeption M.A.</tspan>
        </text>
    </g>
</svg>