<?xml version="1.0" encoding="UTF-8"?>
<svg id="Layer_1" data-name="Layer 1" xmlns="http://www.w3.org/2000/svg" viewBox="0 0 120 84">
    <defs>
        <style>
            .cls-1 {
            fill: #282828;
            stroke-width: 0px;
            }
        </style>
    </defs>
    <path class="cls-1"
          d="M117.49,13.12c-1.38-5.16-5.45-9.23-10.61-10.61C97.53,0,60,0,60,0c0,0-37.53,0-46.88,2.51C7.95,3.89,3.89,7.95,2.51,13.12,0,22.47,0,42,0,42c0,0,0,19.53,2.51,28.88,1.38,5.16,5.45,9.23,10.61,10.61,9.36,2.51,46.88,2.51,46.88,2.51,0,0,37.53,0,46.88-2.51,5.16-1.38,9.23-5.45,10.61-10.61,2.51-9.36,2.51-28.88,2.51-28.88,0,0,0-19.53-2.51-28.88ZM48,60V24l31.18,18-31.18,18Z"/>
</svg>