<svg width="24" height="24" viewBox="0 0 24 24" fill="none" xmlns="http://www.w3.org/2000/svg">
<path d="M12 21.0001L7.5 16.5001L8.95 15.0501L12 18.1001L15.05 15.0501L16.5 16.5001L12 21.0001ZM8.95 9.0501L7.5 7.6001L12 3.1001L16.5 7.6001L15.05 9.0501L12 6.0001L8.95 9.0501Z" fill="white"/>
<mask id="path-2-outside-1_110_23" maskUnits="userSpaceOnUse" x="5.5" y="1.1001" width="13" height="10" fill="black">
<rect fill="white" x="5.5" y="1.1001" width="13" height="10"/>
<path fill-rule="evenodd" clip-rule="evenodd" d="M7.5 7.6001L8.95 9.0501L12 6.0001L15.05 9.0501L16.5 7.6001L12 3.1001L7.5 7.6001Z"/>
</mask>
<path fill-rule="evenodd" clip-rule="evenodd" d="M7.5 7.6001L8.95 9.0501L12 6.0001L15.05 9.0501L16.5 7.6001L12 3.1001L7.5 7.6001Z" fill="white"/>
<path d="M8.95 9.0501L8.24289 9.7572L8.95 10.4643L9.65711 9.7572L8.95 9.0501ZM7.5 7.6001L6.79289 6.89299L6.08579 7.6001L6.79289 8.3072L7.5 7.6001ZM12 6.0001L12.7071 5.29299L12 4.58588L11.2929 5.29299L12 6.0001ZM15.05 9.0501L14.3429 9.7572L15.05 10.4643L15.7571 9.7572L15.05 9.0501ZM16.5 7.6001L17.2071 8.3072L17.9142 7.6001L17.2071 6.89299L16.5 7.6001ZM12 3.1001L12.7071 2.39299L12 1.68588L11.2929 2.39299L12 3.1001ZM9.65711 8.34299L8.20711 6.89299L6.79289 8.3072L8.24289 9.7572L9.65711 8.34299ZM11.2929 5.29299L8.24289 8.34299L9.65711 9.7572L12.7071 6.7072L11.2929 5.29299ZM15.7571 8.34299L12.7071 5.29299L11.2929 6.7072L14.3429 9.7572L15.7571 8.34299ZM15.7929 6.89299L14.3429 8.34299L15.7571 9.7572L17.2071 8.3072L15.7929 6.89299ZM11.2929 3.8072L15.7929 8.3072L17.2071 6.89299L12.7071 2.39299L11.2929 3.8072ZM8.20711 8.3072L12.7071 3.8072L11.2929 2.39299L6.79289 6.89299L8.20711 8.3072Z" fill="white" mask="url(#path-2-outside-1_110_23)"/>
</svg>
