<svg width="24" height="24" viewBox="0 0 24 24" fill="none" xmlns="http://www.w3.org/2000/svg">
<path d="M12 21.0001L7.5 16.5001L8.95 15.0501L12 18.1001L15.05 15.0501L16.5 16.5001L12 21.0001ZM8.95 9.0501L7.5 7.6001L12 3.1001L16.5 7.6001L15.05 9.0501L12 6.0001L8.95 9.0501Z" fill="black"/>
<mask id="path-2-outside-1_110_18" maskUnits="userSpaceOnUse" x="5.5" y="13.0503" width="13" height="10" fill="black">
<rect fill="white" x="5.5" y="13.0503" width="13" height="10"/>
<path fill-rule="evenodd" clip-rule="evenodd" d="M7.5 16.5003L12 21.0003L16.5 16.5003L15.05 15.0503L12 18.1003L8.95 15.0503L7.5 16.5003Z"/>
</mask>
<path fill-rule="evenodd" clip-rule="evenodd" d="M7.5 16.5003L12 21.0003L16.5 16.5003L15.05 15.0503L12 18.1003L8.95 15.0503L7.5 16.5003Z" fill="black"/>
<path d="M12 21.0003L11.2929 21.7074L12 22.4145L12.7071 21.7074L12 21.0003ZM7.5 16.5003L6.79289 15.7932L6.08579 16.5003L6.79289 17.2074L7.5 16.5003ZM16.5 16.5003L17.2071 17.2074L17.9142 16.5003L17.2071 15.7932L16.5 16.5003ZM15.05 15.0503L15.7571 14.3432L15.05 13.6361L14.3429 14.3432L15.05 15.0503ZM12 18.1003L11.2929 18.8074L12 19.5145L12.7071 18.8074L12 18.1003ZM8.95 15.0503L9.65711 14.3432L8.95 13.6361L8.24289 14.3432L8.95 15.0503ZM12.7071 20.2932L8.20711 15.7932L6.79289 17.2074L11.2929 21.7074L12.7071 20.2932ZM15.7929 15.7932L11.2929 20.2932L12.7071 21.7074L17.2071 17.2074L15.7929 15.7932ZM14.3429 15.7574L15.7929 17.2074L17.2071 15.7932L15.7571 14.3432L14.3429 15.7574ZM12.7071 18.8074L15.7571 15.7574L14.3429 14.3432L11.2929 17.3932L12.7071 18.8074ZM8.24289 15.7574L11.2929 18.8074L12.7071 17.3932L9.65711 14.3432L8.24289 15.7574ZM8.20711 17.2074L9.65711 15.7574L8.24289 14.3432L6.79289 15.7932L8.20711 17.2074Z" fill="black" mask="url(#path-2-outside-1_110_18)"/>
</svg>
